<?xml version="1.0" encoding="UTF-8"?>
<svg id="_图层_1" data-name="图层 1" xmlns="http://www.w3.org/2000/svg" viewBox="0 0 433.04 360.49">
  <defs>
    <style>
      .cls-1 {
        fill: #231815;
        stroke-width: 0px;
      }
    </style>
  </defs>
  <path class="cls-1" d="M433.04,360.49l-.13-.71c-4.09-23.28-8.13-45.61-16.12-67.99-20.48-57.37-54.15-109.42-106.45-142.39-24.87-15.68-52.16-26.72-79.54-37.15-25.01-9.52-51-18.52-71.84-35.87,8.92-5.12,41.81-22.58,79.95-12.09,12.51,3.44,22.4,9.01,29.63,14.13.65,2.38,1.35,6.3.47,10.92-.37,1.95-.94,3.62-1.53,4.98,2.38,1.22,4.75,2.44,7.13,3.67.73-.89,1.54-2.06,2.22-3.54,1.55-3.38,1.54-6.52,1.4-8.24,0,0,0,0,0,0h0c.69,1.49,1.36,3.11,1.94,4.87.4,1.21,1.05,3.31,1.55,5.99.42,2.22.8,5.14.81,8.6,3.72-1.18,7.45-2.36,11.17-3.53-.22-2.69-.65-5.77-1.45-9.11-1.26-5.21-3.05-9.53-4.74-12.87,2.87,3.08,6.46,7.69,9.25,13.97,1.45,3.27,2.38,6.33,3,8.99,3.94-2.61,7.88-5.22,11.82-7.83-1.64-4.66-4.03-10.22-7.56-16.12-2.75-4.6-5.63-8.45-8.28-11.6,4.65,3.93,9.76,8.9,14.77,15.08,2.61,3.21,4.86,6.36,6.82,9.35,3.36-3.51,6.71-7.01,10.07-10.52-1.97-2.8-4.45-5.87-7.54-8.96-5.9-5.91-11.94-9.79-16.75-12.33,0,0,.01-.01.02-.02,4.69,1.73,10.31,4.37,16.08,8.48,2.35,1.67,4.43,3.38,6.26,5.04,1.85-2.63,3.7-5.27,5.55-7.9-.93-.93-2.29-2.25-3.95-3.78-2.57-2.36-12.71-11.18-28.72-20.34-7.2-4.12-15.26-7.93-24.21-11.07-63.06-22.09-121.98,6.4-138.26,14.97-6.35-15.47,1.57-25.72,11.25-37.57L113.88,0c-17.56,13.7-24.81,38.39-19.79,59.71-23.12,2.77-45.8-4.73-65.28-17.07L0,74.51c34.43,18.71,71.99,31.72,111.52,20.7,9.97,15.26,21.51,30.66,25.9,48.65,4.28,17.53,1.75,37.35-.37,55.05l1.02-7.43c-2.18,27.61-12.46,53.6-31.39,73.98l59.45,19.87c24.78-39.96,31.15-87.23,25.9-133.6,30.32,13.86,61.66,26.67,87.84,47.76,18.12,14.59,27.74,30.17,31.65,35.9,9.24,13.54,25.31,37.69,29.26,72.3,1.94,16.97.35,31.11-1.29,40.34l93.53,12.47Z"/>
</svg>